<svg width="1200" height="860" viewBox="0 0 1200 860" fill="none" xmlns="http://www.w3.org/2000/svg">
  <rect width="1200" height="860" rx="44" fill="#17181B"/>
  <rect x="54" y="54" width="1092" height="752" rx="32" fill="url(#paint0_linear)"/>
  <circle cx="930" cy="180" r="110" fill="#C89B3C" fill-opacity="0.18"/>
  <circle cx="250" cy="670" r="140" fill="#8B1E1E" fill-opacity="0.22"/>
  <rect x="122" y="142" width="530" height="316" rx="32" fill="#241610"/>
  <rect x="690" y="142" width="370" height="220" rx="32" fill="#1F2024"/>
  <rect x="690" y="388" width="370" height="250" rx="32" fill="#241610"/>
  <rect x="122" y="500" width="530" height="138" rx="32" fill="#1D1E22"/>
  <text x="162" y="224" fill="#F5F1E8" font-family="Georgia, serif" font-size="64" font-weight="700">Dining</text>
  <text x="162" y="296" fill="#E0B15A" font-family="Georgia, serif" font-size="72" font-weight="700">Experience</text>
  <text x="162" y="360" fill="#BDB6AA" font-family="Arial, sans-serif" font-size="24">Warm presentation, inviting atmosphere, and</text>
  <text x="162" y="394" fill="#BDB6AA" font-family="Arial, sans-serif" font-size="24">memorable meals for families and groups.</text>
  <text x="732" y="226" fill="#F5F1E8" font-family="Arial, sans-serif" font-size="28" font-weight="700">Quality Preparation</text>
  <text x="732" y="270" fill="#BDB6AA" font-family="Arial, sans-serif" font-size="22">Careful presentation with</text>
  <text x="732" y="300" fill="#BDB6AA" font-family="Arial, sans-serif" font-size="22">a premium local tone.</text>
  <text x="732" y="468" fill="#F5F1E8" font-family="Arial, sans-serif" font-size="28" font-weight="700">Family &amp; Group Dining</text>
  <text x="732" y="512" fill="#BDB6AA" font-family="Arial, sans-serif" font-size="22">A welcoming atmosphere that</text>
  <text x="732" y="542" fill="#BDB6AA" font-family="Arial, sans-serif" font-size="22">feels relaxed and memorable.</text>
  <text x="162" y="580" fill="#C89B3C" font-family="Arial, sans-serif" font-size="22" font-weight="700">SIGNATURE DINING ATMOSPHERE</text>
  <defs>
    <linearGradient id="paint0_linear" x1="80" y1="76" x2="1080" y2="770" gradientUnits="userSpaceOnUse">
      <stop stop-color="#1A1716"/>
      <stop offset="0.52" stop-color="#111214"/>
      <stop offset="1" stop-color="#241610"/>
    </linearGradient>
  </defs>
</svg>
